<?xml version="1.0" standalone="no"?>
<!DOCTYPE svg PUBLIC "-//W3C//DTD SVG 20010904//EN"
 "http://www.w3.org/TR/2001/REC-SVG-20010904/DTD/svg10.dtd">
<svg version="1.0" xmlns="http://www.w3.org/2000/svg"
 width="122.000000pt" height="122.000000pt" viewBox="0 0 122.000000 122.000000"
 preserveAspectRatio="xMidYMid meet">
<metadata>
Created by potrace 1.11, written by Peter Selinger 2001-2013
</metadata>
<g transform="translate(0.000000,122.000000) scale(0.100000,-0.100000)"
fill="#000000" stroke="none">
<path d="M412 918 c-12 -6 -65 -64 -118 -130 -110 -134 -145 -168 -214 -203
-27 -13 -51 -29 -54 -34 -14 -22 141 72 168 102 16 17 43 48 61 68 18 19 38
46 45 59 12 22 14 22 25 7 11 -16 13 -16 19 -1 3 8 6 24 6 34 0 28 57 88 90
95 40 9 90 -3 90 -21 0 -9 -11 -14 -31 -14 -71 0 -99 -39 -99 -143 0 -21 -9
-56 -21 -79 -13 -26 -19 -51 -15 -69 4 -23 2 -27 -12 -22 -13 4 -14 3 -6 -6
18 -20 109 -40 128 -29 19 11 66 3 66 -11 0 -5 -11 -16 -25 -25 -23 -15 -64
-23 -252 -45 -66 -7 -128 -42 -209 -117 -38 -35 -38 -35 -4 -10 114 84 169
116 201 115 19 0 80 6 137 14 109 16 176 46 165 73 -3 9 2 14 15 14 19 0 21 7
24 70 l3 70 24 -35 23 -34 -21 -27 c-31 -40 -25 -54 7 -17 l28 32 18 -29 c9
-17 21 -30 27 -30 14 0 11 16 -6 30 -26 21 -27 49 -5 80 12 17 17 30 11 30 -6
0 -18 -12 -28 -26 l-17 -26 -23 28 c-29 37 -29 40 7 59 43 22 65 69 50 105
-12 29 -67 63 -98 59 -34 -3 -52 1 -49 13 6 30 -85 48 -131 26z m251 -85 c25
-23 21 -50 -12 -84 -49 -48 -61 -40 -61 42 l0 71 28 -7 c15 -3 35 -14 45 -22z
m-220 6 c-6 -6 -9 -19 -6 -28 4 -13 2 -13 -7 2 -12 19 -6 37 13 37 8 0 8 -3 0
-11z m117 -39 l0 -40 -45 0 -45 0 0 40 0 40 45 0 45 0 0 -40z m-126 -16 c13
-5 16 -26 16 -125 l0 -119 -27 6 c-54 12 -67 57 -33 109 13 20 20 47 20 83 0
28 2 52 4 52 2 0 11 -3 20 -6z m126 -69 l0 -35 -50 0 -50 0 0 35 0 35 50 0 50
0 0 -35z m0 -107 l0 -58 -50 0 -50 0 0 58 0 57 50 0 50 0 0 -57z"/>
<path d="M740 733 c0 -172 4 -193 34 -193 32 0 85 36 92 64 7 28 -18 81 -42
90 -15 6 -14 10 9 34 39 40 37 92 -4 126 -18 15 -43 26 -60 26 l-29 0 0 -147z
m78 110 c37 -32 33 -87 -8 -108 -47 -24 -50 -20 -50 55 0 62 2 70 19 70 10 0
28 -8 39 -17z m11 -179 c12 -15 21 -35 21 -45 0 -27 -36 -59 -65 -59 -24 0
-25 2 -25 65 0 62 1 65 24 65 15 0 33 -11 45 -26z"/>
<path d="M926 855 c-54 -58 -47 -252 10 -306 31 -29 51 -19 78 36 39 78 33
213 -10 265 -31 37 -48 38 -78 5z m70 -21 c35 -53 27 -242 -12 -275 -19 -15
-52 5 -61 39 -5 15 -8 68 -8 118 0 69 4 96 18 117 22 34 42 34 63 1z"/>
<path d="M1070 865 c0 -8 12 -45 27 -82 l27 -67 -31 -88 c-25 -69 -29 -88 -17
-88 8 0 14 6 14 14 0 7 10 41 23 75 l23 62 28 -70 c15 -38 34 -75 42 -81 15
-13 20 0 5 15 -13 15 -61 143 -61 164 0 10 13 51 30 90 16 40 25 71 18 69 -6
-2 -23 -34 -37 -72 l-27 -67 -28 70 c-28 71 -36 84 -36 56z"/>
</g>
</svg>
