<?xml version="1.0" standalone="no"?>
<!DOCTYPE svg PUBLIC "-//W3C//DTD SVG 20010904//EN"
 "http://www.w3.org/TR/2001/REC-SVG-20010904/DTD/svg10.dtd">
<svg version="1.0" xmlns="http://www.w3.org/2000/svg"
 width="2828.000000pt" height="2828.000000pt" viewBox="0 0 2828.000000 2828.000000"
 preserveAspectRatio="xMidYMid meet">
<metadata>
Created by potrace 1.11, written by Peter Selinger 2001-2013
</metadata>
<g transform="translate(0.000000,2828.000000) scale(0.100000,-0.100000)"
fill="#000000" stroke="none">
<path d="M10380 21466 c-199 -30 -377 -84 -523 -158 -307 -154 -707 -396 -897
-542 -315 -242 -488 -445 -643 -756 -155 -309 -212 -383 -606 -785 -459 -467
-832 -906 -1516 -1780 -665 -852 -736 -941 -1010 -1270 -773 -929 -1456 -1567
-2191 -2048 -297 -194 -616 -362 -993 -521 -548 -233 -985 -498 -1436 -872
-130 -108 -572 -540 -562 -550 3 -3 72 44 153 103 961 703 1394 965 2224 1348
318 147 642 307 785 390 490 282 858 610 1456 1295 75 85 513 594 974 1130
461 536 860 1000 886 1030 l48 55 -9 -40 c-9 -41 -2 -96 18 -131 9 -16 12 -16
16 -4 3 8 22 62 42 120 253 738 787 1408 1456 1829 54 33 100 61 103 61 4 0
-37 -64 -91 -142 -200 -294 -425 -592 -638 -845 -72 -86 -142 -170 -156 -187
l-25 -31 50 29 c181 104 415 309 556 486 63 79 61 78 55 60 -35 -97 -364
-1136 -360 -1139 8 -9 93 92 159 189 152 226 231 456 350 1030 100 484 162
679 308 964 289 566 750 1017 1319 1290 769 370 1702 366 2473 -9 147 -72 193
-106 233 -173 24 -42 27 -57 27 -137 0 -78 -4 -97 -29 -148 -61 -125 -181
-219 -322 -253 -96 -23 -278 -21 -426 5 -65 12 -171 30 -235 42 -150 26 -340
29 -436 6 -146 -36 -249 -113 -307 -230 -63 -128 -61 -249 5 -347 32 -48 33
-50 12 -50 -59 0 -149 93 -163 167 -7 37 -1 106 12 137 6 17 -3 14 -57 -15
-35 -20 -286 -156 -557 -304 l-493 -269 38 -11 c93 -28 138 -97 149 -226 10
-110 -10 -220 -71 -409 -29 -91 -63 -199 -74 -240 -136 -503 -174 -1075 -106
-1578 33 -239 38 -318 26 -439 -21 -217 -76 -410 -183 -653 -73 -166 -146
-299 -346 -635 -254 -426 -370 -663 -438 -900 -47 -160 -64 -281 -64 -451 0
-213 38 -391 118 -549 49 -98 85 -149 165 -232 l69 -71 -54 -15 c-211 -61
-483 -48 -691 33 -42 16 -91 37 -107 45 -17 9 -30 13 -30 9 0 -15 96 -127 169
-197 139 -133 322 -239 505 -291 48 -14 96 -26 105 -26 54 -1 33 -21 -114
-115 -150 -94 -189 -124 -149 -112 113 34 445 67 679 67 523 0 1006 -108 1467
-327 l137 -66 56 51 c75 68 218 163 319 212 347 165 763 193 1130 74 244 -78
495 -247 527 -353 27 -89 -15 -144 -255 -344 -553 -459 -1229 -752 -1966 -852
-66 -9 -301 -22 -550 -30 -606 -21 -928 -48 -1385 -116 -433 -64 -846 -152
-1327 -283 -503 -136 -651 -162 -893 -153 -153 6 -178 10 -485 82 -349 82
-591 52 -932 -114 -297 -145 -1185 -707 -1833 -1162 -812 -569 -1663 -1238
-2368 -1863 -89 -79 -183 -195 -219 -271 -27 -58 -50 -185 -33 -185 4 0 71 60
149 133 1224 1151 2665 2224 4111 3062 292 169 478 248 663 280 174 31 300 16
562 -65 235 -73 316 -90 443 -90 138 0 267 26 452 90 443 154 533 183 660 214
461 115 849 161 1800 216 894 51 1313 103 1742 215 449 117 782 270 1198 548
151 101 444 310 522 374 183 147 130 454 -108 629 -28 20 -100 62 -160 94
l-110 57 228 6 c336 10 564 33 870 89 l172 31 5 71 c3 39 15 764 26 1611 12
847 22 1548 23 1559 1 11 71 -75 185 -230 237 -324 568 -773 735 -998 237
-321 281 -396 294 -506 10 -87 38 -44 -762 -1130 -214 -291 -233 -324 -216
-381 12 -40 50 -69 90 -69 41 0 130 42 175 82 26 22 111 122 189 222 77 99
211 271 297 381 333 427 493 630 496 630 1 0 166 -223 364 -495 476 -651 522
-711 573 -753 121 -99 246 -113 345 -40 69 52 68 57 -60 200 -297 333 -572
689 -805 1041 -182 275 -211 399 -125 525 32 46 148 205 733 1004 163 221 189
264 189 306 0 76 -56 114 -140 96 -54 -11 -150 -70 -191 -115 -14 -16 -212
-287 -439 -602 -323 -448 -416 -571 -424 -560 -6 8 -56 68 -112 134 -305 362
-566 711 -834 1114 -197 296 -304 470 -294 479 5 4 50 18 99 31 50 13 153 44
230 70 816 273 1365 707 1650 1303 234 490 252 1001 49 1435 -296 635 -1045
1060 -2107 1197 -246 31 -336 15 -379 -69 -28 -53 -21 187 -110 -3916 -46
-2134 -75 -3358 -80 -3280 -34 644 -52 1840 -44 3000 7 1137 18 1740 61 3275
23 816 24 791 -12 866 -34 73 -83 126 -157 174 -135 86 -297 101 -563 50 -95
-18 -93 -18 -67 3 96 79 138 253 99 407 -26 100 -64 165 -145 245 -119 119
-245 182 -495 245 -214 55 -563 123 -830 161 -150 21 -619 28 -735 10z m535
-1282 c30 -167 13 -356 -46 -519 -36 -98 -38 -92 51 -126 135 -51 173 -54 655
-53 248 0 547 6 665 12 250 15 726 50 755 57 l21 4 -22 286 c-12 157 -23 288
-26 291 -3 2 -15 -44 -28 -103 -12 -59 -28 -133 -34 -163 l-12 -54 -17 65
c-21 84 -39 241 -35 299 l3 45 107 3 106 3 6 -48 c37 -294 76 -1099 76 -1598
0 -341 -17 -830 -31 -873 -18 -55 -32 -59 -434 -118 -816 -119 -1337 -108
-1809 37 -108 33 -141 58 -151 111 -4 18 19 567 49 1218 31 652 56 1205 56
1230 0 42 2 46 38 61 20 9 38 15 40 13 2 -1 10 -37 17 -80z m1305 -68 c6 -31
9 -64 5 -75 -12 -38 -6 -197 9 -246 9 -27 16 -62 16 -76 0 -38 -36 -79 -70
-79 -24 0 -29 5 -35 38 -23 121 -22 462 1 535 6 20 8 19 34 -10 18 -20 33 -52
40 -87z m175 -76 c8 -52 17 -142 20 -200 7 -114 -4 -155 -40 -155 -50 0 -76
316 -39 475 l17 75 14 -50 c7 -27 20 -93 28 -145z m-1015 39 c27 -99 27 -247
0 -353 -31 -122 -35 -122 -55 4 -18 118 -23 345 -10 440 l7 54 19 -36 c10 -20
27 -69 39 -109z m1177 133 c8 -5 14 -85 19 -270 6 -238 6 -262 -9 -262 -44 0
-77 142 -77 331 0 165 7 209 34 209 11 0 26 -4 33 -8z m179 0 c7 -4 13 -55 16
-122 4 -70 10 -116 17 -118 12 -4 14 -193 2 -247 -8 -40 -42 -45 -76 -11 l-25
25 0 241 0 240 28 0 c15 0 32 -4 38 -8z m-1214 -94 c19 -60 23 -96 23 -203 -1
-158 -11 -245 -30 -245 -18 0 -23 30 -31 192 -6 122 2 328 12 328 2 0 14 -33
26 -72z m158 62 c33 -18 40 -66 40 -282 0 -173 -3 -216 -16 -244 -9 -19 -20
-35 -25 -35 -5 -1 -15 -2 -21 -3 -10 -1 -17 63 -29 249 -15 244 -12 300 13
317 16 10 16 10 38 -2z m304 -57 c36 -80 48 -150 53 -306 6 -170 3 -184 -40
-173 -29 7 -33 22 -48 183 -9 109 -2 333 11 333 4 0 15 -17 24 -37z m-770
-233 c1 -189 -1 -215 -15 -218 -9 -1 -27 6 -40 17 -23 18 -24 25 -23 128 1
107 11 177 41 283 15 51 16 53 25 30 6 -14 11 -122 12 -240z m650 229 c15 -77
1 -352 -21 -424 -8 -24 -52 294 -53 376 0 59 11 79 46 79 16 0 23 -8 28 -31z
m-794 -99 c0 -90 -2 -100 -18 -100 -23 0 -62 78 -62 122 0 36 33 78 62 78 16
0 18 -10 18 -100z m3037 -51 c843 -160 1384 -514 1619 -1057 146 -338 114
-709 -91 -1073 -168 -297 -497 -638 -819 -847 -332 -216 -747 -339 -1040 -307
-113 12 -106 -17 -106 423 0 412 14 1476 30 2245 11 539 9 525 78 582 69 58
158 67 329 34z m-3662 -142 c39 -39 60 -105 51 -161 -16 -98 -42 -127 -558
-614 -142 -134 -258 -237 -258 -229 0 52 82 610 95 648 20 58 71 110 156 160
93 54 449 229 467 229 8 0 29 -15 47 -33z m110 -2462 c-134 -3834 -144 -4137
-151 -4352 l-7 -211 27 -55 c84 -173 294 -235 571 -168 44 11 82 17 84 15 10
-10 -94 -96 -150 -125 -97 -49 -195 -69 -330 -69 -163 0 -275 24 -560 120
-327 110 -377 121 -589 129 -166 7 -178 9 -230 36 -107 55 -243 217 -415 494
-233 375 -325 654 -312 946 13 294 94 484 419 985 242 374 302 485 401 735
190 483 243 890 202 1557 -20 337 -16 712 9 845 22 115 61 235 106 325 66 134
59 132 119 26 97 -169 191 -272 302 -330 58 -30 71 -33 149 -32 101 1 156 22
226 86 85 78 103 151 64 263 -46 133 -66 322 -50 461 20 171 66 317 143 453
34 60 43 70 45 50 1 -13 -31 -996 -73 -2184z m-230 1833 c2 -7 9 -187 15 -399
9 -287 10 -391 1 -407 -25 -46 -155 -38 -266 17 -157 78 -260 259 -212 373 17
40 344 389 387 413 31 18 69 19 75 3z m464 -1673 c159 -79 387 -134 636 -156
226 -19 479 -4 1110 66 77 9 223 19 325 22 l186 6 10 -24 c8 -18 7 -214 -7
-729 -22 -879 -23 -895 -44 -948 -33 -81 -73 -94 -410 -136 -295 -38 -410 -46
-720 -53 -377 -8 -866 22 -1110 69 -73 14 -120 54 -131 114 -19 101 57 1804
81 1804 1 0 35 -16 74 -35z m86 -2055 c297 -37 453 -45 845 -44 389 0 573 11
855 50 61 9 153 18 205 21 86 4 99 2 139 -19 86 -44 90 -63 116 -463 35 -561
40 -734 40 -1482 0 -419 -3 -764 -6 -767 -25 -25 -1508 -45 -2038 -27 -306 10
-326 12 -369 33 -79 40 -86 66 -91 313 -4 233 15 1272 29 1630 5 127 15 355
21 509 l13 278 45 -6 c25 -4 114 -15 196 -26z m-2229 -2586 c36 -17 64 -49 64
-72 0 -27 -132 10 -185 52 -17 13 -18 17 -5 26 23 15 88 12 126 -6z m340 -172
c24 -25 43 -51 41 -56 -5 -16 -62 -29 -91 -22 -54 13 -86 77 -67 130 11 26 11
26 42 11 17 -9 51 -37 75 -63z"/>
<path d="M17412 20430 c-96 -20 -159 -77 -183 -164 -9 -31 1 -811 40 -3241 28
-1760 56 -3364 61 -3565 14 -510 47 -883 79 -899 50 -26 473 -17 677 13 569
86 1097 319 1478 651 333 292 506 685 506 1152 0 653 -352 1263 -990 1712
-131 93 -229 151 -413 246 l-158 82 93 33 c250 89 515 255 723 451 298 283
519 672 594 1049 117 585 -52 1207 -452 1660 -182 207 -417 365 -755 509 -447
191 -1115 350 -1300 311z m482 -355 c880 -178 1479 -612 1695 -1227 73 -209
86 -446 38 -678 -56 -269 -165 -609 -234 -728 -101 -176 -247 -301 -503 -431
-207 -106 -904 -429 -959 -445 -128 -38 -240 -4 -287 86 -14 26 -35 404 -64
1138 -28 694 -28 1940 -1 2111 18 112 61 172 136 190 46 11 50 11 179 -16z
m171 -3905 c203 -23 386 -75 563 -162 233 -114 434 -273 615 -487 238 -283
431 -697 476 -1025 66 -471 -191 -965 -662 -1271 -242 -157 -561 -269 -929
-324 -408 -62 -453 -43 -469 197 -5 70 -15 694 -24 1387 -9 693 -17 1335 -18
1427 -2 155 -1 168 19 195 11 15 34 34 50 42 55 27 234 37 379 21z"/>
<path d="M27712 20392 c-59 -23 -118 -84 -157 -162 -18 -36 -135 -330 -260
-655 -125 -324 -336 -873 -470 -1220 -134 -346 -307 -796 -385 -1000 -78 -203
-145 -373 -149 -378 -4 -4 -114 269 -245 605 -259 665 -797 2045 -929 2383
-72 185 -87 216 -128 258 -41 43 -50 47 -91 47 -92 0 -133 -71 -126 -217 5
-99 -89 145 833 -2168 213 -533 402 -1015 420 -1070 64 -192 68 -326 14 -503
-12 -37 -325 -888 -697 -1892 -371 -1004 -675 -1834 -674 -1844 2 -31 35 -69
82 -95 64 -36 161 -34 237 5 115 59 167 167 214 443 36 218 84 415 150 612 67
203 90 263 434 1144 163 418 351 901 418 1073 67 171 124 312 127 312 3 0 160
-381 349 -847 189 -467 372 -918 407 -1003 35 -85 181 -445 324 -800 144 -355
283 -685 308 -734 107 -208 262 -299 428 -251 43 12 69 28 97 57 21 22 37 46
35 53 -2 6 -31 35 -64 63 -67 55 -160 173 -224 282 -62 106 -118 236 -427 989
-649 1584 -878 2142 -925 2256 -28 66 -69 172 -91 235 -40 111 -41 120 -42
240 0 157 -2 150 214 700 301 763 699 1772 951 2410 231 585 246 626 231 644
-39 46 -116 57 -189 28z"/>
<path d="M22215 20316 c-129 -30 -253 -85 -386 -171 -100 -65 -167 -120 -277
-228 -343 -337 -574 -802 -691 -1392 -91 -458 -116 -947 -108 -2085 12 -1603
67 -2087 308 -2700 90 -231 267 -571 377 -725 238 -333 499 -529 787 -591 103
-22 294 -22 392 -1 209 46 358 148 475 327 474 728 782 1607 907 2590 105 821
82 1761 -65 2675 -145 901 -402 1508 -812 1922 -175 176 -345 289 -525 351
-87 30 -118 35 -212 38 -70 2 -132 -1 -170 -10z m221 -378 c-25 -40 -44 -74
-42 -75 1 -1 25 10 54 24 96 47 231 42 349 -13 71 -34 177 -134 237 -224 108
-161 293 -614 421 -1032 409 -1333 442 -2785 95 -4143 -135 -529 -374 -1159
-527 -1387 -100 -151 -216 -245 -358 -294 -69 -23 -96 -27 -190 -27 -141 1
-234 25 -380 97 -136 68 -216 128 -331 248 -251 263 -425 660 -538 1228 -76
381 -126 776 -168 1310 -20 254 -16 1126 5 1410 34 450 94 898 173 1305 131
669 256 958 533 1236 177 176 380 302 611 380 47 15 88 28 92 28 4 1 -12 -32
-36 -71z"/>
</g>
</svg>
